Coordinates
version=1
nRows=65
nColumns=12
inDegrees=yes

Units are S.I. units (second, meters, Newtons, ...)
Angles are in degrees

endheader
time	SC_y	SC_z	SC_x	AC_y	AC_z	AC_x	GH_y	GH_z	GH_yy	EL_x	PS_y
       0.0              -14.93          39.61          18.49          42.69         -18.31         -6.379          160.3          37.03         -133.1          111.4          123.1
   0.02253              -14.94          39.61           18.5          42.69         -18.31         -6.376          160.3          37.03         -133.1          111.4          123.1
   0.04506              -14.94          39.61          18.51          42.69          -18.3         -6.374          160.3          37.03         -133.0          111.4          123.1
   0.06759              -14.94          39.61          18.52          42.68          -18.3         -6.371          160.2          37.03         -133.0          111.4          123.1
   0.09012              -14.95           39.6          18.53          42.68          -18.3         -6.367          160.2          37.03         -132.9          111.4          123.1
    0.1126              -14.95           39.6          18.54          42.68         -18.29         -6.364          160.2          37.03         -132.9          111.4          123.1
    0.1352              -14.96           39.6          18.55          42.68         -18.29         -6.361          160.1          37.02         -132.8          111.3          123.1
    0.1577              -14.96           39.6          18.56          42.68         -18.29         -6.357          160.1          37.02         -132.7          111.3          123.1
    0.1802              -14.97          39.59          18.58          42.68         -18.28         -6.353          160.1          37.02         -132.7          111.3          123.1
    0.2028              -14.97          39.59          18.59          42.68         -18.28         -6.348          160.0          37.02         -132.6          111.3          123.1
    0.2253              -14.98          39.59           18.6          42.68         -18.27         -6.343          160.0          37.02         -132.5          111.3          123.1
    0.2478              -14.98          39.59          18.62          42.68         -18.27         -6.338          159.9          37.02         -132.4          111.3          123.1
    0.2704              -14.99          39.58          18.64          42.67         -18.26         -6.333          159.9          37.02         -132.3          111.3          123.1
    0.2929               -15.0          39.58          18.66          42.67         -18.25         -6.327          159.8          37.01         -132.2          111.3          123.1
    0.3154              -15.01          39.57          18.68          42.67         -18.25         -6.321          159.8          37.01         -132.1          111.3          123.1
    0.3379              -15.02          39.57           18.7          42.67         -18.24         -6.314          159.7          37.01         -132.0          111.3          123.1
    0.3605              -15.02          39.56          18.72          42.67         -18.23         -6.306          159.6          37.01         -131.9          111.3          123.1
     0.383              -15.04          39.56          18.75          42.66         -18.22         -6.298          159.6          37.01         -131.7          111.2          123.1
    0.4055              -15.05          39.55          18.78          42.66         -18.21         -6.289          159.5           37.0         -131.6          111.2          123.1
    0.4281              -15.06          39.55          18.81          42.66          -18.2         -6.279          159.4           37.0         -131.4          111.2          123.1
    0.4506              -15.07          39.54          18.84          42.66         -18.19         -6.268          159.3           37.0         -131.2          111.2          123.1
    0.4731              -15.09          39.53          18.88          42.65         -18.18         -6.256          159.2          36.99         -131.0          111.2          123.1
    0.4956               -15.1          39.52          18.92          42.65         -18.17         -6.243          159.0          36.99         -130.8          111.2          123.1
    0.5182              -15.12          39.51          18.97          42.65         -18.15         -6.229          158.9          36.99         -130.5          111.1          123.1
    0.5407              -15.14           39.5          19.02          42.64         -18.14         -6.212          158.8          36.98         -130.3          111.1          123.1
    0.5632              -15.17          39.49          19.07          42.64         -18.12         -6.194          158.6          36.98         -130.0          111.1          123.1
    0.5858              -15.19          39.48          19.14          42.63          -18.1         -6.174          158.4          36.97         -129.6          111.0          123.1
    0.6083              -15.22          39.46          19.21          42.62         -18.07         -6.152          158.2          36.96         -129.2          111.0          123.1
    0.6308              -15.25          39.45          19.29          42.62         -18.05         -6.126          158.0          36.96         -128.8          111.0          123.1
    0.6533              -15.29          39.43          19.38          42.61         -18.02         -6.097          157.7          36.95         -128.3          110.9          123.1
    0.6759              -15.33           39.4          19.49           42.6         -17.98         -6.063          157.4          36.94         -127.7          110.9          123.1
    0.6984              -15.38          39.38          19.61          42.59         -17.94         -6.025          157.0          36.93         -127.0          110.8          123.1
    0.7209              -15.43          39.35          19.75          42.58          -17.9         -5.981          156.6          36.91         -126.3          110.7          123.1
    0.7435               -15.5          39.32          19.91          42.56         -17.84          -5.93          156.1           36.9         -125.4          110.6          123.1
     0.766              -15.58          39.28           20.1          42.55         -17.78          -5.87          155.6          36.88         -124.4          110.5          123.1
    0.7885              -15.66          39.23          20.32          42.53         -17.71         -5.799          154.9          36.86         -123.2          110.4          123.1
    0.8111              -15.77          39.17          20.59           42.5         -17.62         -5.715          154.1          36.83         -121.7          110.3          123.1
    0.8336               -15.9          39.11          20.91          42.48         -17.52         -5.614          153.2           36.8         -120.0          110.1          123.1
    0.8561              -16.05          39.03          21.29          42.44         -17.39         -5.493          152.1          36.77         -117.9          109.9          123.1
    0.8786              -16.24          38.93          21.76           42.4         -17.24         -5.344          150.7          36.72         -115.3          109.7          123.1
    0.9012              -16.47          38.81          22.34          42.35         -17.05          -5.16          149.0          36.67         -112.2          109.4          123.1
    0.9237              -16.76          38.66          23.06          42.29         -16.81         -4.931          146.8           36.6         -108.3          109.0          123.1
    0.9462              -17.12          38.47          23.98          42.21         -16.51         -4.642          144.1          36.51         -103.3          108.5          123.0
    0.9688              -17.59          38.23          25.13          42.11         -16.13         -4.276          140.7          36.41         -97.01          107.9          123.0
    0.9913              -18.18          37.92          26.62          41.98         -15.65         -3.806          136.4          36.27         -88.95          107.2          123.0
     1.014              -18.94          37.52          28.52          41.81         -15.02         -3.203          130.7          36.09          -78.6          106.2          123.0
     1.036              -19.91          37.01          30.95           41.6         -14.23         -2.434          123.6          35.86         -65.39          104.9          123.0
     1.059              -21.13          36.38          34.01          41.33         -13.23         -1.466          114.6          35.57         -48.77          103.3          122.9
     1.081              -22.62           35.6          37.73           41.0         -12.01        -0.2866          103.6          35.22         -28.52          101.4          122.9
     1.104              -24.34           34.7          42.05          40.62         -10.59           1.08          90.87          34.82          -5.05          99.18          122.8
     1.126              -26.21          33.73          46.72          40.22         -9.062          2.561          77.09          34.38          20.36          96.77          122.8
     1.149              -28.07          32.75           51.4          39.81         -7.531          4.041          63.31          33.94          45.78          94.35          122.7
     1.172               -29.8          31.85          55.71          39.43         -6.117          5.408          50.58          33.53          69.25          92.11          122.7
     1.194              -31.29          31.08          59.44           39.1         -4.898          6.587          39.61          33.18           89.5          90.18          122.6
     1.217              -32.51          30.44          62.49          38.83         -3.897          7.555           30.6           32.9          106.1           88.6          122.6
     1.239              -33.48          29.93          64.92          38.62         -3.101          8.325          23.43          32.67          119.3          87.35          122.6
     1.262              -34.24          29.54          66.82          38.45         -2.477          8.927          17.82          32.49          129.7          86.36          122.5
     1.284              -34.83          29.23          68.31          38.33         -1.992          9.397          13.45          32.35          137.7          85.59          122.5
     1.307              -35.29          28.99          69.47          38.22         -1.612          9.763          10.04          32.24          144.0          84.99          122.5
     1.329              -35.66           28.8          70.38          38.14         -1.314          10.05           7.35          32.15          149.0          84.52          122.5
     1.352              -35.94          28.64           71.1          38.08         -1.077          10.28          5.217          32.09          152.9          84.15          122.5
     1.374              -36.18          28.52          71.68          38.03         -0.887          10.46          3.507          32.03          156.1          83.85          122.5
     1.397              -36.36          28.43          72.15          37.99        -0.7331          10.61          2.122          31.99          158.6           83.6          122.5
     1.419              -36.52          28.35          72.54          37.95         -0.607          10.74         0.9875          31.95          160.7           83.4          122.5
     1.442              -36.64          28.28          72.85          37.93        -0.5029          10.84        0.04997          31.92          162.5          83.24          122.5
